<svg xmlns="http://www.w3.org/2000/svg" viewBox="0 0 370.663 370.663"><path d="M282.148 228.538c0-53.385-43.432-96.816-96.816-96.816s-96.816 43.432-96.816 96.816c0 22.03 7.22 42.777 20.88 60 17.113 21.577 66.666 72.59 68.767 74.75l7.17 7.375 7.17-7.374c2.102-2.163 51.67-53.188 68.784-74.77 13.647-17.21 20.86-37.952 20.86-59.982zM185.332 341.92c-14.617-15.2-47.543-49.768-60.267-65.81-10.827-13.65-16.55-30.102-16.55-47.573 0-42.357 34.46-76.816 76.816-76.816 42.357 0 76.817 34.46 76.817 76.817 0 17.472-5.717 33.916-16.532 47.555-12.722 16.044-45.66 50.624-60.283 65.83z"/><path d="M185.332 168.658c-32.447 0-58.846 26.398-58.846 58.846s26.398 58.846 58.846 58.846 58.846-26.398 58.846-58.846-26.4-58.846-58.846-58.846zm0 97.693c-21.42 0-38.846-17.425-38.846-38.845 0-21.42 17.426-38.846 38.846-38.846 21.42 0 38.846 17.425 38.846 38.845 0 21.42-17.427 38.846-38.846 38.846z"/><path d="M302.276 88.568v-44.07h-20v28.923L185.332 0 4.294 137.11l12.075 15.943 14.844-11.244v194.633h86.062v-20H51.214v-189.78L185.332 25.088 319.45 126.66v189.78h-66.063v20h86.062V141.81l14.844 11.243 12.075-15.944"/></svg>